<svg width="1200" height="630" viewBox="0 0 1200 630" fill="none" xmlns="http://www.w3.org/2000/svg">
  <rect width="1200" height="630" fill="#050B0A"/>
  <rect x="56" y="56" width="1088" height="518" rx="28" fill="#0B1412" stroke="#1DE782" stroke-opacity="0.32" stroke-width="2"/>
  <circle cx="1006" cy="122" r="148" fill="#1DE782" fill-opacity="0.12"/>
  <circle cx="158" cy="518" r="172" fill="#2DD4BF" fill-opacity="0.1"/>
  <path d="M96 458C184 398 252 438 330 372C402 312 448 208 548 232C620 250 638 318 716 312C808 304 852 216 940 236C1018 254 1062 330 1104 398" stroke="#1DE782" stroke-width="8" stroke-linecap="round" stroke-linejoin="round" opacity="0.34"/>
  <g transform="translate(94 102)">
    <rect width="88" height="88" rx="18" fill="#1DE782"/>
    <path d="M25 62V26H39C47.3 26 53 31.3 53 39.1C53 46.9 47.3 52.2 39 52.2H33.4V62H25ZM33.4 44.9H38.5C42.1 44.9 44.4 42.6 44.4 39.1C44.4 35.6 42.1 33.3 38.5 33.3H33.4V44.9Z" fill="#050B0A"/>
    <path d="M58 62V26H66.4V40H78.5V26H87V62H78.5V47.7H66.4V62H58Z" fill="#050B0A"/>
  </g>
  <text x="94" y="250" fill="#F8FAFC" font-family="Inter, Arial, sans-serif" font-size="66" font-weight="800">Pedro Henrique Lopes</text>
  <text x="96" y="316" fill="#1DE782" font-family="Inter, Arial, sans-serif" font-size="34" font-weight="700">Analise de Dados • BI • Dashboards</text>
  <text x="96" y="390" fill="#CBD5E1" font-family="Inter, Arial, sans-serif" font-size="30" font-weight="500">Ajudo clientes a entender seus dados e tomar decisoes melhores</text>
  <text x="96" y="432" fill="#CBD5E1" font-family="Inter, Arial, sans-serif" font-size="30" font-weight="500">atraves de analise pratica e dashboards.</text>
  <g transform="translate(96 498)">
    <rect width="294" height="54" rx="12" fill="#10201B" stroke="#1DE782" stroke-opacity="0.35"/>
    <text x="24" y="36" fill="#F8FAFC" font-family="Inter, Arial, sans-serif" font-size="23" font-weight="700">lopeshpedro.github.io</text>
  </g>
</svg>
